<?xml version="1.0" standalone="no"?>
<!DOCTYPE svg PUBLIC "-//W3C//DTD SVG 20010904//EN"
 "http://www.w3.org/TR/2001/REC-SVG-20010904/DTD/svg10.dtd">
<svg version="1.0" xmlns="http://www.w3.org/2000/svg"
 width="1728.000000pt" height="1728.000000pt" viewBox="0 0 1728.000000 1728.000000"
 preserveAspectRatio="xMidYMid meet">
<metadata>
Created by potrace 1.14, written by Peter Selinger 2001-2017
</metadata>
<g transform="translate(0.000000,1728.000000) scale(0.100000,-0.100000)"
fill="#000000" stroke="none">
<path d="M246 11169 c16 -17 138 -140 272 -274 l242 -242 53 52 c147 147 477
485 477 490 0 3 -242 5 -537 5 l-537 0 30 -31z"/>
<path d="M1352 10823 c-205 -207 -372 -379 -372 -383 0 -4 86 -92 191 -197
l190 -190 192 193 c689 693 937 944 937 948 0 3 -173 6 -383 6 l-384 0 -371
-377z"/>
<path d="M2852 11127 c-39 -40 -72 -75 -72 -77 0 -8 374 -390 382 -390 6 0
403 398 521 522 16 17 5 18 -371 18 l-388 0 -72 -73z"/>
<path d="M3755 10825 c-203 -207 -372 -378 -375 -381 -5 -6 372 -384 383 -384
5 0 266 257 579 570 l571 570 -394 0 -394 0 -370 -375z"/>
<path d="M0 10591 l0 -389 173 -170 c94 -94 265 -263 380 -375 l207 -205 195
194 194 194 -571 570 c-314 313 -572 570 -574 570 -2 0 -4 -175 -4 -389z"/>
<path d="M4845 10710 l-269 -269 269 -265 c148 -146 272 -262 275 -260 7 7 7
1064 0 1064 -3 0 -126 -121 -275 -270z"/>
<path d="M2364 10635 l-189 -195 487 -488 c269 -268 493 -489 498 -490 6 -2
96 82 201 187 l190 192 -248 250 c-136 137 -357 360 -490 495 -133 134 -246
244 -251 244 -5 0 -94 -88 -198 -195z"/>
<path d="M4170 10035 l-195 -195 570 -564 c313 -310 572 -563 575 -561 3 2 5
174 5 383 l0 380 -205 201 c-113 111 -284 281 -381 376 l-175 174 -194 -194z"/>
<path d="M1767 10033 c-103 -103 -187 -189 -187 -193 0 -8 967 -974 979 -978
5 -2 95 83 200 188 l191 190 -491 490 c-269 270 -493 490 -498 490 -4 0 -91
-84 -194 -187z"/>
<path d="M0 9386 l0 -384 76 -75 75 -76 94 92 c51 51 140 138 198 195 l104
102 -156 154 c-281 277 -382 376 -387 376 -2 0 -4 -173 -4 -384z"/>
<path d="M8367 9764 c-3 -3 -34 -8 -69 -10 -72 -4 -90 -7 -164 -29 -30 -9 -56
-16 -59 -16 -18 1 -169 -86 -209 -119 -203 -168 -283 -400 -233 -675 20 -111
68 -197 159 -287 43 -43 85 -78 93 -78 8 0 15 -3 15 -8 0 -4 15 -14 33 -21 17
-8 60 -27 94 -43 35 -15 71 -30 80 -31 21 -4 239 -72 303 -94 194 -69 268
-156 257 -306 -10 -147 -86 -229 -241 -261 -134 -28 -287 -2 -411 71 -22 13
-48 26 -57 30 -10 3 -18 9 -18 14 0 5 -5 9 -12 9 -6 0 -25 10 -42 23 -69 51
-129 58 -180 19 -32 -24 -176 -239 -176 -262 0 -16 164 -132 242 -171 73 -37
234 -96 283 -104 11 -2 29 -6 40 -8 40 -10 150 -19 219 -19 302 1 551 123 688
338 46 71 84 157 94 209 3 16 7 32 10 37 17 27 22 205 9 292 -22 151 -117 291
-257 379 -92 60 -169 91 -419 173 -228 74 -332 139 -360 221 -15 46 -7 149 15
191 50 97 164 151 311 146 119 -3 211 -32 340 -108 82 -48 142 -55 187 -21 15
11 28 22 28 25 0 3 25 53 55 110 31 58 58 114 61 126 4 17 -8 30 -68 71 -160
111 -336 169 -535 179 -46 2 -88 6 -92 9 -5 2 -11 2 -14 -1z"/>
<path d="M10738 9764 c-3 -3 -32 -7 -64 -9 -56 -4 -98 -9 -154 -20 -14 -3 -36
-7 -50 -10 -80 -15 -320 -115 -328 -136 -2 -5 -8 -9 -14 -9 -21 0 -139 -92
-203 -158 -83 -86 -143 -166 -190 -256 -34 -65 -82 -181 -90 -216 -2 -8 -4
-16 -5 -17 -3 -4 -2 1 -25 -113 -20 -96 -25 -326 -11 -425 7 -43 28 -149 40
-195 24 -93 109 -264 176 -356 52 -70 172 -189 231 -229 24 -17 46 -32 49 -35
19 -19 202 -110 223 -110 9 0 17 -5 17 -12 0 -6 3 -9 6 -5 3 3 24 -1 46 -9 23
-8 50 -16 62 -19 12 -2 32 -6 46 -9 149 -33 347 -37 515 -10 219 34 463 154
610 301 70 70 115 122 115 132 0 5 3 11 8 13 25 11 136 219 158 298 54 191 66
268 67 415 1 143 -23 301 -67 430 -21 65 -112 247 -135 272 -12 12 -21 27 -21
32 0 19 -204 216 -262 254 -86 56 -194 109 -283 140 -73 24 -110 34 -200 52
-16 3 -78 8 -137 10 -59 2 -112 6 -117 9 -4 3 -11 3 -13 0z m191 -418 c92 -20
222 -70 229 -88 2 -4 10 -8 18 -8 8 0 14 -4 14 -10 0 -5 5 -10 11 -10 16 0
109 -96 148 -153 86 -126 135 -315 133 -507 -4 -264 -66 -441 -204 -582 -99
-101 -204 -158 -343 -184 -73 -14 -275 -8 -345 10 -74 20 -200 75 -200 87 0 5
-6 9 -12 9 -19 1 -97 77 -145 140 -66 88 -120 227 -139 360 -8 57 -8 286 1
325 3 17 8 45 11 64 2 19 7 38 10 42 3 5 7 19 9 31 7 36 47 130 67 160 10 14
18 30 18 35 0 4 16 26 35 47 19 21 36 42 37 45 7 14 106 90 148 113 61 33 159
67 217 74 26 3 49 6 50 8 5 4 207 -3 232 -8z"/>
<path d="M16438 9764 c-3 -3 -46 -7 -94 -9 -49 -3 -104 -9 -121 -14 -18 -5
-33 -7 -33 -3 0 3 -5 1 -12 -6 -7 -7 -20 -12 -31 -12 -26 0 -156 -62 -214
-101 -185 -128 -286 -320 -285 -544 0 -252 96 -428 296 -544 49 -28 226 -102
226 -94 0 3 7 0 15 -7 8 -7 15 -10 15 -7 0 3 32 -5 70 -18 39 -13 70 -22 70
-19 0 2 13 -2 30 -11 16 -8 33 -15 37 -15 40 1 163 -61 214 -107 58 -53 74
-93 74 -188 -1 -91 -18 -137 -73 -197 -73 -80 -241 -114 -401 -81 -70 15 -229
89 -276 128 -15 14 -34 25 -42 25 -7 0 -13 4 -13 8 0 15 -80 34 -113 27 -41
-9 -62 -28 -105 -95 -19 -30 -38 -57 -41 -60 -3 -3 -13 -18 -21 -35 -8 -16
-25 -44 -37 -60 l-22 -31 34 -31 c85 -78 251 -171 375 -211 152 -49 218 -60
365 -63 313 -5 566 117 714 346 14 22 26 42 26 45 0 3 7 16 14 28 17 32 48
127 57 177 3 22 8 49 10 60 7 33 5 177 -1 220 -17 104 -76 217 -150 290 -54
54 -108 95 -124 95 -5 0 -11 3 -13 8 -3 7 -52 32 -131 66 -20 10 -117 44 -215
76 -332 111 -416 173 -414 308 0 26 2 54 5 62 2 8 7 27 12 43 4 15 11 27 16
27 5 0 9 6 9 14 0 23 69 74 129 97 55 20 205 30 261 16 63 -15 154 -50 200
-77 28 -17 54 -30 57 -30 4 0 14 -7 23 -15 10 -9 40 -18 69 -22 49 -6 53 -4
84 29 17 19 43 57 56 84 14 27 35 66 48 86 13 21 23 44 23 52 0 7 7 19 14 26
13 10 10 16 -17 39 -60 50 -106 81 -121 81 -9 0 -16 4 -16 9 0 12 -135 67
-222 91 -91 24 -116 29 -202 35 -38 3 -72 8 -76 10 -4 2 -10 2 -12 -1z"/>
<path d="M12585 9730 c-2 -3 -3 -525 -2 -1160 l2 -1155 688 -1 687 -1 0 26
c-1 14 0 100 0 190 0 90 -2 166 -5 169 -3 3 -205 6 -448 6 l-442 1 -1 958 c-1
527 -4 961 -8 965 -8 8 -466 10 -471 2z"/>
<path d="M14514 9731 c-2 -2 -4 -525 -4 -1161 l0 -1156 239 -1 c168 0 241 3
243 11 4 9 2 2293 -1 2306 -1 6 -471 7 -477 1z"/>
<path d="M862 9130 l-490 -490 191 -190 c104 -105 193 -190 198 -190 10 0 979
970 979 980 0 12 -368 380 -379 380 -5 0 -229 -221 -499 -490z"/>
<path d="M3268 9133 c-269 -268 -488 -490 -488 -493 0 -8 368 -374 380 -378 5
-2 231 217 501 487 l490 491 -190 190 c-104 105 -193 190 -198 190 -4 0 -227
-219 -495 -487z"/>
<path d="M3869 8534 l-494 -494 194 -194 193 -195 495 495 494 494 -97 97
c-54 54 -141 141 -195 194 l-96 97 -494 -494z"/>
<path d="M1463 8530 l-490 -489 188 -188 c103 -103 192 -189 197 -191 5 -1
230 218 500 488 l491 490 -190 190 c-104 105 -193 190 -198 190 -4 0 -228
-220 -498 -490z"/>
<path d="M0 8188 l0 -386 192 -190 c106 -105 278 -274 381 -375 l188 -185 194
194 193 194 -310 307 c-495 492 -783 776 -811 802 l-27 24 0 -385z"/>
<path d="M2363 8232 c-101 -102 -183 -188 -183 -191 0 -9 967 -975 979 -979 6
-2 96 83 201 188 l191 191 -491 489 c-270 270 -496 489 -503 488 -7 0 -94 -84
-194 -186z"/>
<path d="M4771 8230 l-195 -189 269 -265 c149 -145 272 -263 275 -261 3 2 5
174 5 382 l0 380 -70 71 c-39 40 -74 72 -80 72 -5 0 -98 -86 -204 -190z"/>
<path d="M1773 7639 c-103 -103 -188 -193 -188 -199 0 -6 220 -233 488 -505
l489 -493 56 58 c32 32 119 121 195 199 l138 142 -495 493 -494 494 -189 -189z"/>
<path d="M4169 7634 l-194 -194 570 -570 c314 -313 572 -570 575 -570 3 0 5
175 5 389 l0 388 -227 224 c-125 123 -296 292 -381 376 l-153 152 -195 -195z"/>
<path d="M0 6835 c0 -294 2 -535 4 -535 7 0 536 532 536 540 0 9 -526 530
-536 530 -2 0 -4 -241 -4 -535z"/>
<path d="M779 6649 l-567 -569 394 0 393 0 88 89 c48 49 217 220 375 380 l288
290 -191 191 c-105 104 -196 189 -202 189 -7 -1 -267 -258 -578 -570z"/>
<path d="M3192 6653 l-562 -568 385 -3 385 -2 186 187 c102 104 271 275 376
381 l191 192 -191 190 c-105 105 -195 190 -200 190 -4 0 -261 -255 -570 -567z"/>
<path d="M4097 6357 l-266 -272 270 -3 c148 -1 390 -1 538 0 l269 3 -272 272
-272 272 -267 -272z"/>
<path d="M1691 6353 l-262 -268 385 -3 386 -2 75 76 76 76 -43 42 c-24 24
-109 111 -191 195 -81 83 -151 151 -156 151 -4 0 -126 -120 -270 -267z"/>
</g>
</svg>
