<?xml version="1.0" standalone="no"?>
<!DOCTYPE svg PUBLIC "-//W3C//DTD SVG 20010904//EN"
 "http://www.w3.org/TR/2001/REC-SVG-20010904/DTD/svg10.dtd">
<svg version="1.0" xmlns="http://www.w3.org/2000/svg"
 width="512.000000pt" height="512.000000pt" viewBox="0 0 512.000000 512.000000"
 preserveAspectRatio="xMidYMid meet">
<metadata>
Created by potrace 1.14, written by Peter Selinger 2001-2017
</metadata>
<g transform="translate(0.000000,512.000000) scale(0.100000,-0.100000)"
fill="#000000" stroke="none">
<path d="M0 2560 l0 -2560 2560 0 2560 0 0 2560 0 2560 -2560 0 -2560 0 0
-2560z m1911 626 c360 -596 656 -1082 659 -1081 3 2 293 489 645 1084 l640
1080 331 1 331 0 6 -547 c4 -302 7 -1089 7 -1750 l0 -1203 -380 0 -380 0 -2
1047 -3 1048 -514 -863 -513 -862 -183 0 -183 0 -509 836 -508 836 -3 -1021
-2 -1021 -380 0 -380 0 0 1750 0 1750 334 0 334 0 653 -1084z"/>
</g>
</svg>
