<?xml version="1.0" ?><svg enable-background="new 0 0 32 32" height="18px" id="svg2" version="1.1" viewBox="0 0 32 32" width="18px" xml:space="preserve" xmlns="http://www.w3.org/2000/svg" xmlns:cc="http://creativecommons.org/ns#" xmlns:dc="http://purl.org/dc/elements/1.1/" xmlns:inkscape="http://www.inkscape.org/namespaces/inkscape" xmlns:rdf="http://www.w3.org/1999/02/22-rdf-syntax-ns#" xmlns:sodipodi="http://sodipodi.sourceforge.net/DTD/sodipodi-0.dtd" xmlns:svg="http://www.w3.org/2000/svg"><g id="background"><rect fill="none" height="32" width="32" x="0.001" y="0.001"/></g><g id="clock"><path d="M0,16C0.002,7.166,7.166,0.002,16,0l0,0c8.838,0.002,16,7.166,16.001,16l0,0c-0.002,8.838-7.163,16-16.001,16.001l0,0   C7.166,31.999,0.002,24.838,0,16L0,16z M4,16c0.012,6.626,5.376,11.988,12,12l0,0c6.628-0.012,11.988-5.371,12-12l0,0   C27.987,9.376,22.626,4.012,16,4l0,0C9.378,4.012,4.012,9.378,4,16L4,16z" fill="#7E5AFF"/><polygon points="18.001,14.001 18.001,6.002 14.001,6.001 14.001,18.001 22.001,18.001 22.001,14.001  " fill="#7E5AFF"/></g></svg>